# xmcd
#
# Track frame offsets: 
#        150
#        5267
#        18445
#        32637
#        47147
#        60740
#        65732
#        83722
#        99940
#        111637
#        117707
#        132147
#        145932
#        158825
#        162225
#        167820
#        189057
#        200935
#        217322
#
# Disc length: 2935 seconds
#
# Revision: 1
# Processed by: cddbd v1.5.2PL0 Copyright (c) Steve Scherf et al.
# Submitted via: ExactAudioCopy v0.95b3
#
DISCID=150b7513
DTITLE=Various Artist - Johnnie and Jack with Kitty Wells at KWKH
DYEAR=1900
DGENRE=Country
TTITLE0=Johnnie and Jack - Raining On The Mountain - Intro
TTITLE1=Johnnie and Jack - Orange Blosson Special
TTITLE2=Johnnie and Jack - White Dove
TTITLE3=Kitty Wells - The Singing Waterfall
TTITLE4=Johnnie and Jack - Sweeping Through The Gate
TTITLE5=Paul Warren - Wake Up, Susan
TTITLE6=Johnnie and Jack - Heard My Mother Weeping
TTITLE7=Johnnie and Jack - My Bucket's Gotta Hole In It
TTITLE8=Johnnie and Jack - This World Can't Stand
TTITLE9=Johnnie and Jack - Cheatham County Breakdown
TTITLE10=Kitty Wells - Death Of Little Kathy Fiscus
TTITLE11=Johnnie and Jack - No Letter In The Mail Today
TTITLE12=Johnnie and Jack - I Saw The Light
TTITLE13=Paul Warren - Mississippi Sawyer
TTITLE14=Paul Warren - Cotton-Eyed Joe
TTITLE15=Johnnie and Jack - Little Cabin Home On The Hill
TTITLE16=Paul Warren - Love Or Hate
TTITLE17=Johnnie and Jack - He Will Set Your Fields On Fire
TTITLE18=Johnnie and Jack - It's Raining On The Mountain
EXTD=
EXTT0=
EXTT1=
EXTT2=
EXTT3=
EXTT4=
EXTT5=
EXTT6=
EXTT7=
EXTT8=
EXTT9=
EXTT10=
EXTT11=
EXTT12=
EXTT13=
EXTT14=
EXTT15=
EXTT16=
EXTT17=
EXTT18=
PLAYORDER=
